<?xml version="1.0" encoding="utf-8"?>
<!-- Generator: Adobe Illustrator 17.1.0, SVG Export Plug-In . SVG Version: 6.00 Build 0)  -->
<!DOCTYPE svg PUBLIC "-//W3C//DTD SVG 1.1//EN" "http://www.w3.org/Graphics/SVG/1.1/DTD/svg11.dtd">
<svg version="1.1" id="Layer_1" xmlns="http://www.w3.org/2000/svg" xmlns:xlink="http://www.w3.org/1999/xlink" x="0px" y="0px"
	 viewBox="0 0 94.6 14.4" enable-background="new 0 0 94.6 14.4" xml:space="preserve">
<g>
	<g>
		<linearGradient id="SVGID_1_" gradientUnits="userSpaceOnUse" x1="-3.957703e-02" y1="9.3636" x2="11.2513" y2="9.3636">
			<stop  offset="0" style="stop-color:#1DC2EA"/>
			<stop  offset="1" style="stop-color:#177FC3"/>
		</linearGradient>
		<polygon fill="url(#SVGID_1_)" points="7.4,8.3 0,8.3 0,10.4 8.1,10.4 		"/>
		<polygon fill="#177FC3" points="6.5,8.3 7.2,10.4 8.1,10.4 7.4,8.3 		"/>
		<path d="M24.8,8.3c-0.8-0.3-2-0.5-2-1.5c0-1,1.4-1,2.2-1c0.9,0,1.7,0.1,2.5,0.3l0.2-1.6c-1.2-0.3-2.1-0.4-3.5-0.4
			c-2,0-3.5,0.6-3.5,2.8c0,2.1,1.5,2.5,3.1,3c0.9,0.3,1.9,0.4,1.9,1.5c0,1.2-1.5,1.1-2.3,1.1c-0.8,0-1.9-0.1-2.6-0.3l-0.2,1.6
			c1,0.3,2.4,0.4,3.4,0.4c2.2,0,3.9-0.6,3.9-2.9C27.9,9.2,26.5,8.9,24.8,8.3z"/>
		<path d="M35.7,4.1c-3.2,0-4.4,1.4-4.4,5.1c0,3.7,1.2,5.1,4.4,5.1c3.2,0,4.4-1.4,4.4-5.1C40.1,5.6,39,4.1,35.7,4.1z M35.7,12.6
			c-1.8,0-2.3-0.7-2.3-3.4c0-2.7,0.5-3.4,2.3-3.4c1.8,0,2.3,0.8,2.3,3.4C38,11.8,37.5,12.6,35.7,12.6z"/>
		<path d="M45.8,5.8V4.3h-2.1V1.5l-2.1,0.5v2.3H40v1.6h1.7v5.8c0,1.8,0.9,2.7,2.9,2.7c0.5,0,0.5-0.1,0.9-0.1l-0.2-1.5
			c-0.3,0,0.1,0-0.2,0c-0.9,0-1.3-0.3-1.3-1.2V5.8H45.8z"/>
		<path d="M17.7,4.4c-0.7-0.2-1.5-0.3-2.2-0.3c-3,0-4.3,1.3-4.3,5.1c0,3.9,1.4,5.1,4.6,5.1c1.3,0,2.8-0.2,3.9-0.9
			c0.1-0.6,0.1-1.2,0.1-1.8V0l-2.1,0.5V4.4z M17.7,11c0,0.4,0,0.9-0.1,1.3c-0.4,0.2-1.2,0.3-1.8,0.3c-2.4,0-2.5-1.6-2.5-3.5
			c0-2,0.1-3.4,2.7-3.4c0.5,0,1.2,0.1,1.7,0.3V11z"/>
		<polygon points="28.4,14.1 30.5,14.1 30.5,0 28.4,0.5 		"/>
		<g>
			<polygon points="0,14.1 2.3,14.1 3.5,10.4 1.3,10.4 			"/>
			<path d="M7.8,2.6c-0.4-1.1-1-1.5-1.9-1.5C5,1.1,4.3,1.5,3.9,2.6L2,8.3h2.2l1.6-5.2l3.5,11h2.4L7.8,2.6z"/>
		</g>
	</g>
	<g>
		<g>
			<linearGradient id="SVGID_2_" gradientUnits="userSpaceOnUse" x1="47.3802" y1="9.3316" x2="96.8894" y2="9.3316">
				<stop  offset="0" style="stop-color:#1DC2EA"/>
				<stop  offset="1" style="stop-color:#177FC3"/>
			</linearGradient>
			<path fill="url(#SVGID_2_)" d="M49.7,14.3h-1V6.8c0-0.5,0-1.1,0-1.6c1.1-0.4,2.7-0.8,4-0.8c1.3,0,2.1,0.3,2.6,0.8
				c1-0.5,2.3-0.8,3.7-0.8c2.9,0,3.3,1.6,3.3,3.5v6.3h-1V8.1c0-2-0.5-2.8-2.6-2.8c-0.8,0-2,0.2-2.9,0.7C56,6.6,56,7.2,56,7.9v6.3h-1
				V8.1c0-2-0.5-2.8-2.7-2.8c-0.7,0-1.9,0.2-2.6,0.5c0,0.5,0,1.2,0,1.6V14.3z"/>
			<linearGradient id="SVGID_3_" gradientUnits="userSpaceOnUse" x1="47.3814" y1="9.3956" x2="96.8827" y2="9.3956">
				<stop  offset="0" style="stop-color:#1DC2EA"/>
				<stop  offset="1" style="stop-color:#177FC3"/>
			</linearGradient>
			<path fill="url(#SVGID_3_)" d="M64.3,9.4c0-3.5,1.1-5,4.2-5c3.2,0,4.1,1.7,4.1,4.2c0,0.3,0,0.7,0,1c-1.1,0.2-3.4,0.4-4.8,0.5
				l-2.5,0.1c0.2,2,0.6,3.3,3.5,3.3c1.3,0,2.4-0.1,3.4-0.3l0.1,0.9c-1.1,0.2-2.2,0.3-4,0.3C65.1,14.4,64.3,12.3,64.3,9.4z M68.1,9.2
				c0.9,0,2.5-0.2,3.5-0.3c0-0.2,0-0.5,0-0.8c0-1.7-0.8-2.9-3.1-2.9c-2.6,0-3.2,1.2-3.2,4.1L68.1,9.2z"/>
			<linearGradient id="SVGID_4_" gradientUnits="userSpaceOnUse" x1="47.3785" y1="7.923" x2="96.892" y2="7.923">
				<stop  offset="0" style="stop-color:#1DC2EA"/>
				<stop  offset="1" style="stop-color:#177FC3"/>
			</linearGradient>
			<path fill="url(#SVGID_4_)" d="M81,1.5h1V12c0,0.5,0,1.1,0,1.6c-1.1,0.5-2.4,0.8-3.6,0.8c-3,0-4.3-1.2-4.3-5c0-3.7,1.1-5,4-5
				c1,0,2,0.2,2.9,0.4V1.5z M78.5,5.3c-2.7,0-3.4,1.1-3.4,4.1c0,2.9,0.8,4.1,3.3,4.1c0.8,0,1.8-0.2,2.6-0.5c0-0.5,0-1.1,0-1.6V5.7
				C80.3,5.5,79.3,5.3,78.5,5.3z"/>
			<linearGradient id="SVGID_5_" gradientUnits="userSpaceOnUse" x1="47.4063" y1="7.7937" x2="96.8793" y2="7.7937">
				<stop  offset="0" style="stop-color:#1DC2EA"/>
				<stop  offset="1" style="stop-color:#177FC3"/>
			</linearGradient>
			<path fill="url(#SVGID_5_)" d="M84.1,2.2c0-0.6,0.1-0.9,0.6-0.9c0.5,0,0.6,0.2,0.6,0.9c0,0.6-0.1,0.8-0.6,0.8
				C84.2,3,84.1,2.8,84.1,2.2z M84.2,4.5h1v9.7h-1V4.5z"/>
			<linearGradient id="SVGID_6_" gradientUnits="userSpaceOnUse" x1="47.364" y1="9.3956" x2="96.8915" y2="9.3956">
				<stop  offset="0" style="stop-color:#1DC2EA"/>
				<stop  offset="1" style="stop-color:#177FC3"/>
			</linearGradient>
			<path fill="url(#SVGID_6_)" d="M87.4,4.7c1.1-0.2,2.2-0.3,3.6-0.3c2,0,3.6,0.5,3.6,2.9V12c0,0.5,0,1.1,0,1.6
				c-1.2,0.5-2.5,0.8-3.9,0.8c-2.6,0-3.8-0.7-3.8-2.9c0-1.7,0.7-2.7,2.4-3c1.2-0.2,2.8-0.2,4.4-0.3V7.6c0-1.7-0.5-2.3-2.9-2.3
				c-1.1,0-2.1,0.1-3.2,0.3L87.4,4.7z M90.6,13.5c0.9,0,2-0.1,2.9-0.5c0-0.5,0-1.1,0-1.6V9.1c-1.2,0-3,0.1-4.1,0.3
				c-1.1,0.2-1.7,0.7-1.7,2.1C87.8,13.1,88.6,13.5,90.6,13.5z"/>
		</g>
	</g>
</g>
<g>
</g>
<g>
</g>
<g>
</g>
<g>
</g>
<g>
</g>
<g>
</g>
<g>
</g>
<g>
</g>
<g>
</g>
<g>
</g>
<g>
</g>
<g>
</g>
<g>
</g>
<g>
</g>
<g>
</g>
</svg>
