<?xml version="1.0" encoding="utf-8"?>
<!-- Generator: Adobe Illustrator 17.1.0, SVG Export Plug-In . SVG Version: 6.00 Build 0)  -->
<!DOCTYPE svg PUBLIC "-//W3C//DTD SVG 1.1//EN" "http://www.w3.org/Graphics/SVG/1.1/DTD/svg11.dtd">
<svg version="1.1" id="Layer_1" xmlns="http://www.w3.org/2000/svg" xmlns:xlink="http://www.w3.org/1999/xlink" x="0px" y="0px"
	 viewBox="0 0 99.6 15.1" enable-background="new 0 0 99.6 15.1" xml:space="preserve">
<g>
	<g>
		<linearGradient id="SVGID_1_" gradientUnits="userSpaceOnUse" x1="-4.167944e-02" y1="9.8613" x2="11.8489" y2="9.8613">
			<stop  offset="0" style="stop-color:#1DC2EA"/>
			<stop  offset="1" style="stop-color:#177FC3"/>
		</linearGradient>
		<polygon fill="url(#SVGID_1_)" points="7.8,8.8 0,8.8 0,11 8.5,11 		"/>
		<polygon fill="#177FC3" points="6.9,8.8 7.6,11 8.5,11 7.8,8.8 		"/>
		<path fill="#FFFFFF" d="M26.1,8.7C25.3,8.4,24,8.2,24,7.2c0-1.1,1.5-1.1,2.3-1.1c0.9,0,1.8,0.1,2.6,0.3l0.2-1.6
			c-1.2-0.3-2.3-0.4-3.7-0.4c-2.1,0-3.7,0.7-3.7,2.9c0,2.2,1.6,2.7,3.3,3.2c1,0.3,2,0.4,2,1.6c0,1.2-1.6,1.2-2.4,1.2
			c-0.8,0-2-0.1-2.8-0.3l-0.2,1.7c1.1,0.3,2.5,0.4,3.6,0.4c2.3,0,4.1-0.7,4.1-3.1C29.3,9.7,27.9,9.3,26.1,8.7z"/>
		<path fill="#FFFFFF" d="M37.6,4.3c-3.4,0-4.6,1.5-4.6,5.4c0,3.9,1.2,5.4,4.6,5.4c3.4,0,4.6-1.5,4.6-5.4C42.2,5.8,41,4.3,37.6,4.3z
			 M37.6,13.3c-1.9,0-2.4-0.7-2.4-3.6c0-2.9,0.5-3.6,2.4-3.6c1.9,0,2.4,0.8,2.4,3.6C40,12.4,39.5,13.3,37.6,13.3z"/>
		<path fill="#FFFFFF" d="M48.3,6.1V4.5h-2.2V1.5L43.9,2v2.4h-1.8v1.6h1.8v6.1c0,1.9,0.9,2.8,3,2.8c0.5,0,0.5-0.1,1-0.2l-0.2-1.6
			c-0.3,0,0.1,0-0.2,0c-1,0-1.4-0.3-1.4-1.3V6.1H48.3z"/>
		<path fill="#FFFFFF" d="M18.7,4.6c-0.7-0.2-1.6-0.3-2.3-0.3c-3.2,0-4.6,1.3-4.6,5.4c0,4.1,1.4,5.4,4.9,5.4c1.4,0,2.9-0.3,4.1-0.9
			c0.1-0.6,0.1-1.2,0.1-1.9V0l-2.2,0.5V4.6z M18.7,11.6c0,0.5,0,1-0.1,1.4c-0.4,0.2-1.2,0.3-1.9,0.3c-2.5,0-2.6-1.7-2.6-3.6
			c0-2.1,0.1-3.6,2.8-3.6c0.5,0,1.2,0.1,1.8,0.3V11.6z"/>
		<polygon fill="#FFFFFF" points="29.9,14.9 32.1,14.9 32.1,0 29.9,0.5 		"/>
		<g>
			<polygon fill="#FFFFFF" points="0,14.9 2.4,14.9 3.7,11 1.3,11 			"/>
			<path fill="#FFFFFF" d="M8.2,2.7c-0.4-1.1-1.1-1.6-2-1.6c-0.9,0-1.7,0.5-2,1.6l-2,6h2.3l1.7-5.5l3.7,11.6h2.5L8.2,2.7z"/>
		</g>
	</g>
	<g>
		<g>
			<linearGradient id="SVGID_2_" gradientUnits="userSpaceOnUse" x1="49.8955" y1="9.8271" x2="102.0345" y2="9.8271">
				<stop  offset="0" style="stop-color:#1DC2EA"/>
				<stop  offset="1" style="stop-color:#177FC3"/>
			</linearGradient>
			<path fill="url(#SVGID_2_)" d="M52.4,15h-1.1V7.2c0-0.6,0-1.2,0-1.7c1.1-0.4,2.8-0.8,4.2-0.8c1.4,0,2.2,0.3,2.7,0.9
				c1-0.5,2.4-0.9,3.9-0.9c3,0,3.5,1.7,3.5,3.7V15h-1.1V8.6c0-2.1-0.5-3-2.8-3c-0.9,0-2.1,0.2-3.1,0.8c0.2,0.6,0.3,1.2,0.3,2V15
				h-1.1V8.6c0-2.1-0.5-3-2.8-3c-0.7,0-2,0.2-2.7,0.6c0,0.5,0,1.2,0,1.7V15z"/>
			<linearGradient id="SVGID_3_" gradientUnits="userSpaceOnUse" x1="49.8969" y1="9.8945" x2="102.0271" y2="9.8945">
				<stop  offset="0" style="stop-color:#1DC2EA"/>
				<stop  offset="1" style="stop-color:#177FC3"/>
			</linearGradient>
			<path fill="url(#SVGID_3_)" d="M67.7,9.9c0-3.7,1.1-5.2,4.4-5.2c3.4,0,4.4,1.8,4.4,4.4c0,0.3,0,0.7,0,1.1c-1.2,0.2-3.6,0.4-5,0.5
				l-2.7,0.1c0.2,2.1,0.7,3.5,3.6,3.5c1.3,0,2.5-0.2,3.6-0.3l0.1,0.9c-1.2,0.2-2.3,0.3-4.2,0.3C68.6,15.1,67.7,12.9,67.7,9.9z
				 M71.7,9.7c1,0,2.6-0.2,3.7-0.3c0-0.2,0-0.6,0-0.8c0-1.8-0.8-3-3.3-3c-2.7,0-3.4,1.3-3.4,4.3L71.7,9.7z"/>
			<linearGradient id="SVGID_4_" gradientUnits="userSpaceOnUse" x1="49.8947" y1="8.3437" x2="102.0379" y2="8.3437">
				<stop  offset="0" style="stop-color:#1DC2EA"/>
				<stop  offset="1" style="stop-color:#177FC3"/>
			</linearGradient>
			<path fill="url(#SVGID_4_)" d="M85.3,1.5h1.1v11.1c0,0.6,0,1.2,0,1.7c-1.1,0.6-2.5,0.8-3.8,0.8c-3.2,0-4.5-1.3-4.5-5.3
				c0-3.9,1.2-5.2,4.2-5.2c1.1,0,2.1,0.2,3.1,0.4V1.5z M82.6,5.6c-2.9,0-3.6,1.1-3.6,4.3c0,3.1,0.9,4.3,3.5,4.3
				c0.8,0,1.9-0.2,2.7-0.5c0-0.5,0-1.2,0-1.7V6C84.6,5.8,83.5,5.6,82.6,5.6z"/>
			<linearGradient id="SVGID_5_" gradientUnits="userSpaceOnUse" x1="49.9232" y1="8.208" x2="102.0234" y2="8.208">
				<stop  offset="0" style="stop-color:#1DC2EA"/>
				<stop  offset="1" style="stop-color:#177FC3"/>
			</linearGradient>
			<path fill="url(#SVGID_5_)" d="M88.6,2.3c0-0.7,0.1-0.9,0.6-0.9c0.5,0,0.6,0.2,0.6,0.9c0,0.6-0.1,0.9-0.6,0.9
				C88.7,3.2,88.6,3,88.6,2.3z M88.7,4.8h1.1V15h-1.1V4.8z"/>
			<linearGradient id="SVGID_6_" gradientUnits="userSpaceOnUse" x1="49.8736" y1="9.8945" x2="102.0377" y2="9.8945">
				<stop  offset="0" style="stop-color:#1DC2EA"/>
				<stop  offset="1" style="stop-color:#177FC3"/>
			</linearGradient>
			<path fill="url(#SVGID_6_)" d="M92,5c1.2-0.2,2.3-0.3,3.7-0.3c2.2,0,3.8,0.5,3.8,3.1v5c0,0.6,0,1.2,0,1.7
				c-1.2,0.6-2.6,0.8-4.2,0.8c-2.7,0-4-0.7-4-3c0-1.8,0.7-2.9,2.5-3.2c1.3-0.2,3-0.3,4.7-0.3V8c0-1.8-0.5-2.5-3-2.5
				c-1.2,0-2.2,0.1-3.4,0.3L92,5z M95.5,14.2c1,0,2.1-0.2,3-0.5c0-0.5,0-1.2,0-1.7V9.6c-1.3,0-3.2,0.1-4.3,0.3
				c-1.2,0.2-1.8,0.8-1.8,2.3C92.4,13.8,93.3,14.2,95.5,14.2z"/>
		</g>
	</g>
</g>
<g>
</g>
<g>
</g>
<g>
</g>
<g>
</g>
<g>
</g>
<g>
</g>
<g>
</g>
<g>
</g>
<g>
</g>
<g>
</g>
<g>
</g>
<g>
</g>
<g>
</g>
<g>
</g>
<g>
</g>
</svg>
